<svg xmlns="http://www.w3.org/2000/svg" width="341.09" height="70.88" viewBox="0 0 341.09 70.88"><title>getapp-logo</title><path d="M85.56,31.79l-23-23a2,2,0,0,0-2.74,0L55.3,13.31,73.78,31.79a1.93,1.93,0,0,1,0,2.74l-19,19,4.52,4.52a2,2,0,0,0,2.74,0L85.56,34.53a2,2,0,0,0,0-2.74" style="fill:#009c9c"/><path d="M46.38,10.46,44.71,8.79a2,2,0,0,0-2.74,0l-4.52,4.52,3,3,5.89,5.89,5.88-5.89Z" style="fill:#40e3e3"/><path d="M45.82,44.63l-5.88,5.89-3,3,4.52,4.52a2,2,0,0,0,2.74,0l1.66-1.67,5.89-5.89Z" style="fill:#40e3e3"/><path d="M55.93,31.79a2,2,0,0,1,0,2.74L45.82,44.63l5.89,5.89,16-16a1.93,1.93,0,0,0,0-2.74L52.27,16.35l-5.89,5.89Z" style="fill:#1abab8"/><path d="M18.42,32.34l16-16-5.89-5.89L26.85,8.79a2,2,0,0,0-2.74,0L.57,32.34a1.93,1.93,0,0,0,0,2.74l23,23a2,2,0,0,0,2.74,0L28,56.41l5.89-5.89L18.42,35.08a1.93,1.93,0,0,1,0-2.74" style="fill:#87f0f0"/><path d="M36.27,32.34l7.07-7.06-5.89-5.89-3-3-16,16a1.93,1.93,0,0,0,0,2.74L33.86,50.52l3-3,5.89-5.89-6.52-6.51a2,2,0,0,1,0-2.74" style="fill:#40e3e3"/><path d="M36.27,35.08l6.52,6.51,7.06-7.06a1.93,1.93,0,0,0,0-2.74l-6.51-6.51-7.07,7.06a2,2,0,0,0,0,2.74" style="fill:#17cfcf"/><path d="M104,26.91a22.44,22.44,0,0,1,1.53-7.6,16.46,16.46,0,0,1,4-5.9A18.35,18.35,0,0,1,116,9.59a27.17,27.17,0,0,1,9-1.35A27.21,27.21,0,0,1,135,9.8a19.63,19.63,0,0,1,6.25,3.75,12.9,12.9,0,0,1,3.26,4.51A14.32,14.32,0,0,1,145.57,22a1.56,1.56,0,0,1-.52,1.35,2,2,0,0,1-1.36.52h-5.62a1.87,1.87,0,0,1-1.22-.38,2.47,2.47,0,0,1-.65-.8c-.1-.18-.34-.59-.73-1.22a8.21,8.21,0,0,0-1.88-1.94,13,13,0,0,0-3.36-1.8,14.52,14.52,0,0,0-5.21-.8,12,12,0,0,0-8.33,2.81,10.24,10.24,0,0,0-3.33,7.53c-.1,1.76-.14,3.65-.14,5.66s0,3.9.14,5.66c.13,3.84,1.25,6.63,3.33,8.36A12.57,12.57,0,0,0,125,49.55a18.91,18.91,0,0,0,4.72-.56,9.81,9.81,0,0,0,3.71-1.8,8.27,8.27,0,0,0,2.43-3.3,12.9,12.9,0,0,0,.87-5V38.3h-8.47a1.77,1.77,0,0,1-1.32-.56,1.79,1.79,0,0,1-.55-1.31V31.5a1.9,1.9,0,0,1,1.87-1.88h16a1.9,1.9,0,0,1,1.87,1.88v7.63a21.56,21.56,0,0,1-1.32,7.67,16.22,16.22,0,0,1-4,6,18.34,18.34,0,0,1-6.6,4,30.79,30.79,0,0,1-18.39,0A17.5,17.5,0,0,1,109.4,53a16.62,16.62,0,0,1-3.92-6,23.25,23.25,0,0,1-1.5-7.67c0-.88-.08-1.85-.1-2.91s0-2.16,0-3.27,0-2.19,0-3.26.06-2,.1-2.92" style="fill:#424a52"/><path d="M167.51,29.07a8.87,8.87,0,0,0-3.44.59,7.48,7.48,0,0,0-2.39,1.52,6.84,6.84,0,0,0-1.5,2.09,7.88,7.88,0,0,0-.65,2.18h15.68a11.24,11.24,0,0,0-.52-2.18,5.63,5.63,0,0,0-1.25-2.09,6.41,6.41,0,0,0-2.29-1.52,9.46,9.46,0,0,0-3.64-.59m-17,10.41a22.29,22.29,0,0,1,1.18-7.32,17.62,17.62,0,0,1,3.4-6,16.12,16.12,0,0,1,5.38-4,16.68,16.68,0,0,1,7-1.45,16.9,16.9,0,0,1,7,1.42A16.38,16.38,0,0,1,179.93,26a16.91,16.91,0,0,1,3.44,5.62,19.06,19.06,0,0,1,1.22,6.77v3.12a1.91,1.91,0,0,1-1.88,1.88H159.53a5.8,5.8,0,0,0,.65,2.81,6.25,6.25,0,0,0,1.78,2,7.84,7.84,0,0,0,2.56,1.25,11.18,11.18,0,0,0,3,.41,12,12,0,0,0,3.61-.45,7.65,7.65,0,0,0,2.29-1.14,7,7,0,0,1,1.25-.77,3.37,3.37,0,0,1,1.32-.21h5.55a2,2,0,0,1,1.36.56,1.57,1.57,0,0,1,.52,1.32,5.78,5.78,0,0,1-1.08,2.5,11.88,11.88,0,0,1-3,3,19.47,19.47,0,0,1-5,2.5,20.41,20.41,0,0,1-6.84,1,17.8,17.8,0,0,1-7-1.35A15.09,15.09,0,0,1,155.08,53a17.38,17.38,0,0,1-3.4-5.94,23.17,23.17,0,0,1-1.18-7.6" style="fill:#424a52"/><path d="M201.21,44.48a4.92,4.92,0,0,0,1.15,3.43c.76.86,2.18,1.29,4.27,1.29h4.23a1.9,1.9,0,0,1,1.88,1.87v4.58a1.91,1.91,0,0,1-1.88,1.88h-5.14q-6.53,0-10-3.16t-3.5-9.68V29.76H187.6a1.76,1.76,0,0,1-1.31-.56,1.73,1.73,0,0,1-.56-1.31V23.3a1.76,1.76,0,0,1,.56-1.31,1.8,1.8,0,0,1,1.31-.56h4.59V10.11a1.9,1.9,0,0,1,1.87-1.87h5.28a1.9,1.9,0,0,1,1.87,1.87V21.43h9A1.9,1.9,0,0,1,212,23.3v4.59a1.9,1.9,0,0,1-1.87,1.87h-9Z" style="fill:#424a52"/><path d="M246.82,39.41l-7.64-19.79-7.63,19.79ZM243,8.93a2.21,2.21,0,0,1,1.67.59,5.18,5.18,0,0,1,1,1.77l17,43.88a1.73,1.73,0,0,1,.07.48,1.91,1.91,0,0,1-1.88,1.88h-5a2.63,2.63,0,0,1-1.95-.59,3.52,3.52,0,0,1-.76-1.15l-3-7.7H228.22l-3,7.7a3.52,3.52,0,0,1-.76,1.15,2.63,2.63,0,0,1-1.95.59h-5a1.91,1.91,0,0,1-1.87-1.88,1.43,1.43,0,0,1,.07-.48l17-43.88a5.18,5.18,0,0,1,1-1.77,2.21,2.21,0,0,1,1.67-.59Z" style="fill:#424a52"/><path d="M292.43,41.42a18,18,0,0,0,0-3.88c-.27-3-1.2-5.18-2.77-6.49a8.69,8.69,0,0,0-5.76-2,8.45,8.45,0,0,0-5.73,2,8.26,8.26,0,0,0-2.67,5.76,19.42,19.42,0,0,0-.14,2.64,19.32,19.32,0,0,0,.14,2.64,8.4,8.4,0,0,0,2.67,5.69,8.27,8.27,0,0,0,5.73,2.08,8.69,8.69,0,0,0,5.76-2c1.57-1.31,2.5-3.48,2.77-6.49M286,58.22a16.59,16.59,0,0,1-3.85-.41,15.55,15.55,0,0,1-3-1A11.58,11.58,0,0,1,277,55.41a12.34,12.34,0,0,1-1.45-1.35V68.84a1.91,1.91,0,0,1-1.88,1.88h-5.27a1.91,1.91,0,0,1-1.88-1.88V23.3a1.91,1.91,0,0,1,1.88-1.87h5.27a1.91,1.91,0,0,1,1.88,1.87v1.6A12.34,12.34,0,0,1,277,23.55a11.58,11.58,0,0,1,2.19-1.36,15.55,15.55,0,0,1,3-1,16.59,16.59,0,0,1,3.85-.41,14.32,14.32,0,0,1,6.28,1.35,14.84,14.84,0,0,1,4.79,3.61,17.39,17.39,0,0,1,3.13,5.21,19.12,19.12,0,0,1,1.28,6.14c.05.69.07,1.5.07,2.43s0,1.74-.07,2.43a19.12,19.12,0,0,1-1.28,6.14,17.39,17.39,0,0,1-3.13,5.21,14.84,14.84,0,0,1-4.79,3.61A14.32,14.32,0,0,1,286,58.22" style="fill:#424a52"/><path d="M331.67,41.42a18,18,0,0,0,0-3.88c-.28-3-1.2-5.18-2.78-6.49a8.65,8.65,0,0,0-5.76-2,8.45,8.45,0,0,0-5.73,2,8.26,8.26,0,0,0-2.67,5.76,21.19,21.19,0,0,0-.14,2.64,21.08,21.08,0,0,0,.14,2.64,8.4,8.4,0,0,0,2.67,5.69,8.27,8.27,0,0,0,5.73,2.08,8.65,8.65,0,0,0,5.76-2c1.58-1.31,2.5-3.48,2.78-6.49m-6.46,16.8a16.65,16.65,0,0,1-3.85-.41,15.8,15.8,0,0,1-3-1,11.48,11.48,0,0,1-2.18-1.36,12.52,12.52,0,0,1-1.46-1.35V68.84a1.81,1.81,0,0,1-.56,1.32,1.79,1.79,0,0,1-1.31.56h-5.28a1.9,1.9,0,0,1-1.87-1.88V23.3a1.9,1.9,0,0,1,1.87-1.87h5.28a1.91,1.91,0,0,1,1.87,1.87v1.6a12.52,12.52,0,0,1,1.46-1.35,11.48,11.48,0,0,1,2.18-1.36,15.8,15.8,0,0,1,3-1,16.65,16.65,0,0,1,3.85-.41,14.36,14.36,0,0,1,6.29,1.35,15,15,0,0,1,4.79,3.61,17.36,17.36,0,0,1,3.12,5.21,19.12,19.12,0,0,1,1.28,6.14c.05.69.07,1.5.07,2.43s0,1.74-.07,2.43a19.12,19.12,0,0,1-1.28,6.14,17.36,17.36,0,0,1-3.12,5.21,15,15,0,0,1-4.79,3.61,14.36,14.36,0,0,1-6.29,1.35" style="fill:#424a52"/></svg>